STARTFONT 2.3
FONT -FontForge-DM Serif Display-Book-R-Normal--24-240-72-72-P-123-ISO10646-1
SIZE 24 72 72  4
FONTBOUNDINGBOX 25 25 -3 -6
COMMENT "Generated by fontforge, http://fontforge.sourceforge.net"
COMMENT "Copyright 2014 - 2017 Adobe Systems Incorporated (http://www.adobe.com/), with Reserved Font Name 'Source'. Copyright 2019 Google LLC."
STARTPROPERTIES 40
FOUNDRY "FontForge"
FAMILY_NAME "DM Serif Display"
WEIGHT_NAME "Book"
SLANT "R"
SETWIDTH_NAME "Normal"
ADD_STYLE_NAME ""
PIXEL_SIZE 24
POINT_SIZE 240
RESOLUTION_X 72
RESOLUTION_Y 72
SPACING "P"
AVERAGE_WIDTH 123
CHARSET_REGISTRY "ISO10646"
CHARSET_ENCODING "1"
FONTNAME_REGISTRY ""
CHARSET_COLLECTIONS "ISO10646-1"
BITS_PER_PIXEL 4
FONT_NAME "DMSerifDisplay-Regular"
FACE_NAME "DM Serif Display Regular"
COPYRIGHT "Copyright 2014 - 2017 Adobe Systems Incorporated (http://www.adobe.com/), with Reserved Font Name 'Source'. Copyright 2019 Google LLC."
FONT_VERSION "5.200; ttfautohint (v1.8.3)"
FONT_ASCENT 19
FONT_DESCENT 5
UNDERLINE_POSITION -2
UNDERLINE_THICKNESS 2
X_HEIGHT 11
CAP_HEIGHT 15
RAW_ASCENT 800
RAW_DESCENT 200
NORM_SPACE 5
RELATIVE_WEIGHT 40
RELATIVE_SETWIDTH 50
SUPERSCRIPT_X 0
SUPERSCRIPT_Y 8
SUPERSCRIPT_SIZE 14
SUBSCRIPT_X 0
SUBSCRIPT_Y 1
SUBSCRIPT_SIZE 14
AVG_LOWERCASE_WIDTH 124
AVG_UPPERCASE_WIDTH 147
ENDPROPERTIES
CHARS 95
STARTCHAR space
ENCODING 32
SWIDTH 218 0
DWIDTH 5 0
BBX 1 1 0 0
BITMAP
00
ENDCHAR
STARTCHAR exclam
ENCODING 33
SWIDTH 333 0
DWIDTH 8 0
BBX 4 16 2 0
BITMAP
4EE4
CFFC
DFFD
AFFA
7FF7
3FF3
0EE0
0BB0
0880
0540
0000
0110
6FF6
FFFF
EFFE
5EE5
ENDCHAR
STARTCHAR quotedbl
ENCODING 34
SWIDTH 425 0
DWIDTH 10 0
BBX 9 8 1 10
BITMAP
7EB107EB10
FFF50FFF50
EFF50EFF50
BFF10BFF10
7FD007FD00
4F9004F900
0E5000E500
0A1000A100
ENDCHAR
STARTCHAR numbersign
ENCODING 35
SWIDTH 557 0
DWIDTH 13 0
BBX 13 16 0 0
BITMAP
00001B0000B000
00004800039000
00006600057000
00009300084000
0ADDFDDDDFDDC0
0000C0000C0000
0000C0000C0000
0002A0001B0000
00048000390000
00066000570000
00084000750000
7DDEDDDDEEDD20
000C0000B10000
000C0000C00000
002A0001B00000
00480003900000
ENDCHAR
STARTCHAR dollar
ENCODING 36
SWIDTH 532 0
DWIDTH 13 0
BBX 11 21 1 -3
BITMAP
000009000000
000009000000
005BBDBC6000
08F7091EFB00
3FE0090AFF40
9FE00906FF40
AFF309006600
9FFD49000000
4FFFFE820000
07FFFFFF9100
004CFFFFFC00
00004DFFFF70
0000092BFFC0
28400901EFD0
AFF10900CFB0
BFF50900EF50
4FFA0906F900
028C9C9B5000
000009000000
000009000000
000004000000
ENDCHAR
STARTCHAR percent
ENCODING 37
SWIDTH 871 0
DWIDTH 21 0
BBX 19 17 1 -1
BITMAP
00377300000000510000
06F34F50000002900000
1EC00EE100000A100000
6FA00CF5000065000000
8FA00BF7000290000000
9F900AF8000A10000000
8FA00BF7007404883000
5FB00CF403807F24F500
0DD00EC00A12FC00EE10
03D77D208307FA00CF50
000330038009F900BF70
0000000A000AF900BF80
000000830008F900BF60
000004700005FA00DF30
00001A000001DD01FC00
0000820000003D78C200
00003000000000220000
ENDCHAR
STARTCHAR ampersand
ENCODING 38
SWIDTH 721 0
DWIDTH 17 0
BBX 17 16 0 0
BITMAP
00005CDDC600000000
0009FA00AF90000000
003FF4003FF0000000
005FF4004FE0000000
004FF9007F70000000
001EFF42E700144200
0006FFE9100007A100
0001DFFE3000062000
007E4CFFE300080000
08FA02EFFE20260000
2FF7003EFFD2700000
5FF90004FFFE500000
5FFD00006FFFD10000
1EFF90000BFFFC1000
05FFFDAAD59FFFB000
003AEFEA201CFFFC20
ENDCHAR
STARTCHAR quotesingle
ENCODING 39
SWIDTH 223 0
DWIDTH 5 0
BBX 4 8 1 10
BITMAP
7EB1
FFF5
EFF5
BFF1
7FD0
4F90
0E50
0A10
ENDCHAR
STARTCHAR parenleft
ENCODING 40
SWIDTH 368 0
DWIDTH 9 0
BBX 7 23 1 -5
BITMAP
00000040
00000A40
0000A900
0008E100
003F9000
00CF4000
04FE0000
09FB0000
0DF90000
1FF70000
3FF70000
3FF60000
2FF70000
0FF80000
0CFA0000
08FC0000
02FF1000
009F5000
001EB000
0004F300
00006B00
00000660
00000010
ENDCHAR
STARTCHAR parenright
ENCODING 41
SWIDTH 368 0
DWIDTH 9 0
BBX 7 23 1 -5
BITMAP
10000000
65000000
0C600000
03F40000
00BE1000
005F9000
001FF200
000CF800
000AFC00
0008FF00
0007FF20
0007FF30
0007FF30
0007FF10
0009FD00
000BF900
000EF400
004FC000
009F3000
01E80000
09A00000
4A000000
40000000
ENDCHAR
STARTCHAR asterisk
ENCODING 42
SWIDTH 433 0
DWIDTH 10 0
BBX 10 9 0 9
BITMAP
0000AE2000
0000DF4000
1620AF1053
9FF86C4DFE
4CEFDDFFD8
0003CC6000
006FB6FA00
02FF51EF70
01DA005E50
ENDCHAR
STARTCHAR plus
ENCODING 43
SWIDTH 541 0
DWIDTH 13 0
BBX 13 13 0 1
BITMAP
00000020000000
00000090000000
00000090000000
00000090000000
00000090000000
00000090000000
288888C8888820
00000090000000
00000090000000
00000090000000
00000090000000
00000090000000
00000060000000
ENDCHAR
STARTCHAR comma
ENCODING 44
SWIDTH 300 0
DWIDTH 7 0
BBX 5 8 1 -4
BITMAP
0AEA00
6FFF60
5FFF80
09FF70
006F20
009900
03A000
050000
ENDCHAR
STARTCHAR hyphen
ENCODING 45
SWIDTH 332 0
DWIDTH 8 0
BBX 6 1 1 6
BITMAP
AAAAAA
ENDCHAR
STARTCHAR period
ENCODING 46
SWIDTH 300 0
DWIDTH 7 0
BBX 5 5 1 0
BITMAP
001000
0BFD20
6FFF80
5FFF80
0AEB10
ENDCHAR
STARTCHAR slash
ENCODING 47
SWIDTH 342 0
DWIDTH 8 0
BBX 8 21 0 -4
BITMAP
00000027
00000062
00000090
00000180
00000540
00000900
00000800
00004500
00008100
00009000
00036000
00072000
00090000
00170000
00630000
00900000
01800000
05400000
08000000
09000000
35000000
ENDCHAR
STARTCHAR zero
ENCODING 48
SWIDTH 502 0
DWIDTH 12 0
BBX 12 16 0 0
BITMAP
0004A87A4000
006F8007F700
03FF3002FF30
0BFF0000FFC0
1FFE0000DFF2
4FFD0000CFF5
6FFD0000CFF7
7FFC0000CFF8
7FFC0000CFF8
6FFD0000CFF7
4FFD0000CFF5
1FFE0000DFF2
0BFF0000FFC0
03FF3002FF40
006F8007F700
0004A87B4000
ENDCHAR
STARTCHAR one
ENCODING 49
SWIDTH 350 0
DWIDTH 8 0
BBX 8 16 0 0
BITMAP
00000600
0017DF10
27CFFF00
007FFF00
007FFF00
007FFF00
007FFF00
007FFF00
007FFF00
007FFF00
007FFF00
007FFF00
007FFF00
007FFF00
009FFF10
18FFFFC5
ENDCHAR
STARTCHAR two
ENCODING 50
SWIDTH 532 0
DWIDTH 13 0
BBX 11 16 1 0
BITMAP
04A97BD93000
3F8000BFF500
4D00005FFE10
4600002FFF50
2000001FFF60
0000003FFF20
0000008FFA00
000001EFC100
00000BFB1000
00008F900000
0006E6000000
005C20000000
05A100000000
5FBBBBBBBB90
BFFFFFFFFFC0
BFFFFFFFFFC0
ENDCHAR
STARTCHAR three
ENCODING 51
SWIDTH 532 0
DWIDTH 13 0
BBX 11 16 1 0
BITMAP
028B89DB5000
08F4006FF800
0970000FFF30
0910000EFF70
0100000EFF50
0000001FFC00
0000008F9100
00047BE72000
0000005FF800
0000000CFF60
00000009FFC0
20000009FFE0
5700000AFFC0
6E10000CFF50
7FA0004FF800
049B78DA3000
ENDCHAR
STARTCHAR four
ENCODING 52
SWIDTH 538 0
DWIDTH 13 0
BBX 13 16 0 0
BITMAP
0000000BFE0000
0000006FFE0000
000002CFFE0000
00000A4FFE0000
0000672FFE0000
0001B02FFE0000
000A202FFE0000
0057002FFE0000
01A0002FFE0000
0A20002FFE0000
4ECCCCCFFFCC30
6FFFFFFFFFFF40
0000002FFE0000
0000002FFE0000
0000002FFE0000
0000002FFE0000
ENDCHAR
STARTCHAR five
ENCODING 53
SWIDTH 532 0
DWIDTH 13 0
BBX 11 16 1 0
BITMAP
00BBBBBBBB50
00FFFFFFFF70
01FFFFFFFF70
028000000000
036000000000
055000000000
0669EFFC6000
05B646EFFB00
0000003FFF70
0000000CFFD0
0000000AFFF0
10000009FFE0
6300000AFFB0
7C00000DFF40
8F70005FF600
17BA79C92000
ENDCHAR
STARTCHAR six
ENCODING 54
SWIDTH 530 0
DWIDTH 13 0
BBX 12 16 0 0
BITMAP
000000049860
000006DA2000
0001BF800000
001CFB000000
00AFF3000000
04FFD0000000
0AFFA7ADC810
0FFF8005FFC1
2FFF5000BFF8
3FFF40008FFC
2FFF40007FFE
0FFF50007FFD
0BFF60008FFA
03FF9000AFF3
006FD101EF50
0003AA7B9200
ENDCHAR
STARTCHAR seven
ENCODING 55
SWIDTH 489 0
DWIDTH 12 0
BBX 12 16 0 0
BITMAP
388888888882
5FFFFFFFFFF3
5FFFFFFFFFE1
000000000170
000000000830
000000003C00
00000000C600
00000007E100
0000002F9000
000000CF3000
000007FC0000
00002EF60000
0000BFE00000
0006FF800000
002EFF200000
00AFFB000000
ENDCHAR
STARTCHAR eight
ENCODING 56
SWIDTH 502 0
DWIDTH 12 0
BBX 12 16 0 0
BITMAP
0006B88B8100
01CF4002FC00
08FE0000BF50
0DFE00009F80
0EFF4000AF50
0CFFE300DB00
05FFFF87A100
008FFFFF7000
0006FFFFFB10
006C16DFFFA0
08F6001AFFF2
2FF30000DFF5
4FF400009FF4
2FF60000AFE1
08FD1001EE40
004AC88B9200
ENDCHAR
STARTCHAR nine
ENCODING 57
SWIDTH 532 0
DWIDTH 13 0
BBX 12 17 0 -1
BITMAP
0005B98B9200
009FB002FE40
07FF5000CFE1
0EFF30009FF7
2FFF20008FFC
3FFF20007FFE
1FFF40007FFF
0BFF70007FFE
02DFE400AFFC
0018CDB8BFF8
00000000DFF2
00000002FF80
00000009FB00
0000004FB100
000007D60000
003796000000
002000000000
ENDCHAR
STARTCHAR colon
ENCODING 58
SWIDTH 300 0
DWIDTH 7 0
BBX 5 13 1 0
BITMAP
001000
0BFD20
6FFF80
5FFF80
0AEB10
000000
000000
000000
001000
0BFD20
6FFF80
5FFF80
0AEB10
ENDCHAR
STARTCHAR semicolon
ENCODING 59
SWIDTH 300 0
DWIDTH 7 0
BBX 5 17 1 -4
BITMAP
001000
0BFD20
6FFF80
5FFF80
0AEB10
000000
000000
000000
000000
0AEA00
6FFF60
5FFF80
09FF70
006F20
009900
03A000
050000
ENDCHAR
STARTCHAR less
ENCODING 60
SWIDTH 541 0
DWIDTH 13 0
BBX 11 12 1 2
BITMAP
000000000410
00000003A600
000002981000
000189100000
007A30000000
6A4000000000
B60000000000
05A400000000
0006A3000000
000018920000
000000298100
000000003A20
ENDCHAR
STARTCHAR equal
ENCODING 61
SWIDTH 541 0
DWIDTH 13 0
BBX 13 6 0 5
BITMAP
27777777777720
00000000000000
00000000000000
00000000000000
00000000000000
27777777777720
ENDCHAR
STARTCHAR greater
ENCODING 62
SWIDTH 541 0
DWIDTH 13 0
BBX 11 12 1 2
BITMAP
292000000000
018910000000
000298100000
000003A60000
00000005A500
0000000006B0
000000004A60
0000003A7000
000019810000
001892000000
06A300000000
140000000000
ENDCHAR
STARTCHAR question
ENCODING 63
SWIDTH 506 0
DWIDTH 12 0
BBX 11 16 1 0
BITMAP
006CC8BA4000
1CFF302FF800
7FFC000BFF20
8FF8000AFF50
2BB1000DFF40
0000008FFE10
00001BFFF500
00001FFC4000
00000C400000
000008000000
000002000000
000001000000
0005EF700000
000DFFF10000
000DFFF10000
0004DE600000
ENDCHAR
STARTCHAR at
ENCODING 64
SWIDTH 877 0
DWIDTH 21 0
BBX 19 19 1 -3
BITMAP
0000002798889A500000
000019B30000018C2000
0003D60000000005E200
003E6000000000009C00
01D900006CCB7B402F50
09E1000AE307FF400DB0
1F90009F5007FF100AD0
6F4004FD000AFE0009F0
AF100BF8000DFB000AE0
CE002FF5001FF8000BC0
DD005FF5003FF6000F80
DF005FF6006FF3005F20
BF103FFC13AFF000C700
8F600CFFFD1CF10A8000
2FC0018B810299830000
07F70000000000000000
00AF7000000000000000
0006EC51000151000000
000016ACC99620000000
ENDCHAR
STARTCHAR A
ENCODING 65
SWIDTH 650 0
DWIDTH 16 0
BBX 16 16 0 0
BITMAP
0000004FF2000000
0000009FF7000000
000000EFFC000000
0000059FFF200000
0000081FFF700000
0000170BFFC00000
00005206FFF20000
00007001FFF70000
00016000BFFC0000
000620006FFF3000
000977778FFF8000
001600000BFFD000
0061000007FFF300
0070000002FFF800
0270000000DFFD00
5DC3000005FFFFA1
ENDCHAR
STARTCHAR B
ENCODING 66
SWIDTH 598 0
DWIDTH 14 0
BBX 14 16 0 0
BITMAP
2CFFFA79EC8100
04FFF5003FFE20
03FFF5000BFFA0
03FFF50009FFE0
03FFF50009FFC0
03FFF5000CFF40
03FFF5006FC400
03FFFA8BFB6100
03FFF5002CFE50
03FFF50003FFF4
03FFF50000EFFA
03FFF50000EFFC
03FFF50000FFFA
03FFF50003FFF3
04FFF5001BFE50
2CFFFA79CB7100
ENDCHAR
STARTCHAR C
ENCODING 67
SWIDTH 603 0
DWIDTH 14 0
BBX 14 16 0 0
BITMAP
000016AC877940
0005EF800004F8
007FFA00000089
04FFF200000007
0CFFB000000000
2FFF8000000000
6FFF7000000000
7FFF6000000000
7FFF6000000000
6FFF6000000000
3FFF8000000000
0DFFB000000002
05FFF10000000A
008FF80000005C
0006EF700001DB
000016BB877950
ENDCHAR
STARTCHAR D
ENCODING 68
SWIDTH 648 0
DWIDTH 16 0
BBX 16 16 0 0
BITMAP
2CFFFA78AA400000
04FFF60007FC2000
03FFF60000AFE300
03FFF600004FFD10
03FFF600001FFF60
03FFF600000DFFB0
03FFF600000CFFE0
03FFF600000BFFF0
03FFF600000BFFF1
03FFF600000CFFE0
03FFF600000DFFB0
03FFF600000FFF60
03FFF600004FFC00
03FFF60000BFE200
04FFF60007FB1000
2CFFFA78A8300000
ENDCHAR
STARTCHAR E
ENCODING 69
SWIDTH 555 0
DWIDTH 13 0
BBX 13 16 0 0
BITMAP
2BFFFA7777CF10
04FFF600002F10
03FFF600000A20
03FFF600000320
03FFF600000000
03FFF600020000
03FFF6001B0000
03FFFA77CD0000
03FFF6001C0000
03FFF600070000
03FFF600000000
03FFF600000000
03FFF600000040
03FFF600000290
04FFF600000980
2CFFFA77779F80
ENDCHAR
STARTCHAR F
ENCODING 70
SWIDTH 538 0
DWIDTH 13 0
BBX 13 16 0 0
BITMAP
2BFFFB7778EF20
04FFF600005F30
03FFF600000C40
03FFF600000440
03FFF600000000
03FFF600010000
03FFF6000B0000
03FFFA77CE0000
03FFF6001E0000
03FFF600070000
03FFF600000000
03FFF600000000
03FFF600000000
03FFF600000000
04FFF800000000
2BFFFE70000000
ENDCHAR
STARTCHAR G
ENCODING 71
SWIDTH 656 0
DWIDTH 16 0
BBX 16 16 0 0
BITMAP
000015AB878A6100
0005EF700002EA00
007FF90000007B00
04FFF10000001A00
0CFFB00000000100
3FFF800000000000
6FFF600000000000
7FFF600000000000
7FFF600029CCCCB2
6FFF7000007FFF30
3FFF8000005FFF20
0DFFC000005FFF20
04FFF100005FFF20
007FF800005FFF20
0006EF60005FFE10
000016BA87BA5000
ENDCHAR
STARTCHAR H
ENCODING 72
SWIDTH 691 0
DWIDTH 17 0
BBX 16 16 0 0
BITMAP
3CFFFE50009FFFF9
04FFF700000DFFD0
03FFF600000DFFC0
03FFF600000DFFC0
03FFF600000DFFC0
03FFF600000DFFC0
03FFF600000DFFC0
03FFFB88888EFFC0
03FFF600000DFFC0
03FFF600000DFFC0
03FFF600000DFFC0
03FFF600000DFFC0
03FFF600000DFFC0
03FFF600000DFFC0
04FFF700000DFFC0
2BFFFD30007FFFF7
ENDCHAR
STARTCHAR I
ENCODING 73
SWIDTH 301 0
DWIDTH 7 0
BBX 7 16 0 0
BITMAP
3CFFFD50
04FFF700
03FFF600
03FFF600
03FFF600
03FFF600
03FFF600
03FFF600
03FFF600
03FFF600
03FFF600
03FFF600
03FFF600
03FFF600
04FFF700
2BFFFD40
ENDCHAR
STARTCHAR J
ENCODING 74
SWIDTH 427 0
DWIDTH 10 0
BBX 10 16 0 0
BITMAP
0003DFFFD4
00005FFF70
00004FFF70
00003FFF70
00003FFF70
00002FFF70
00002FFF70
00002FFF60
00001FFF60
00001FFF40
00001FFF20
00001FFE00
01001FF900
7FE32FF200
CFFD4F5000
4CFD930000
ENDCHAR
STARTCHAR K
ENCODING 75
SWIDTH 654 0
DWIDTH 16 0
BBX 16 16 0 0
BITMAP
3CFFFC30001AF920
04FFF50000084000
03FFF40000840000
03FFF40007500000
03FFF40075000000
03FFF40750000000
03FFF47F40000000
03FFFAFFD1000000
03FFF8FFF9000000
03FFF48FFF400000
03FFF40CFFE10000
03FFF402EFFA0000
03FFF4006FFF5000
03FFF4000BFFE100
04FFF50002EFFB00
2BFFFC3003EFFFA2
ENDCHAR
STARTCHAR L
ENCODING 76
SWIDTH 540 0
DWIDTH 13 0
BBX 13 16 0 0
BITMAP
3CFFFE40000000
04FFF700000000
03FFF600000000
03FFF600000000
03FFF600000000
03FFF600000000
03FFF600000000
03FFF600000000
03FFF600000000
03FFF600000000
03FFF600000000
03FFF600000010
03FFF600000250
03FFF600000950
04FFF600003F40
2BFFFB7778EF30
ENDCHAR
STARTCHAR M
ENCODING 77
SWIDTH 791 0
DWIDTH 19 0
BBX 19 16 0 0
BITMAP
3CFFF400000007FFFC30
04FFFA0000000CFFF500
03DFFF1000002CFFF400
038FFF60000087FFF400
035DFFC00000A4FFF400
0357FFF3000374FFF400
0351FFF8000924FFF400
0350BFFE000A05FFF400
03505FFF504605FFF400
03500EFFA09105FFF400
035008FFF2A005FFF400
035003FFFC5005FFF400
035000CFFE0005FFF400
0350006FF90005FFF400
0460001FF40005FFF500
3CC3000AD0003CFFFC20
ENDCHAR
STARTCHAR N
ENCODING 78
SWIDTH 653 0
DWIDTH 16 0
BBX 15 16 0 0
BITMAP
2EFFF5000005DF80
04FFFE2000002900
00AFFFC000001800
008EFFF800001800
0084FFFF40001800
00808FFFD1001800
00800CFFFA001800
008002EFFF601800
0080005FFFE21800
00800009FFFC1800
00800000CFFF9800
008000002EFFF800
0080000006FFF800
0080000000AFF800
00910000001DF800
18FB30000003F800
ENDCHAR
STARTCHAR O
ENCODING 79
SWIDTH 670 0
DWIDTH 16 0
BBX 16 16 0 0
BITMAP
000028A88A930000
0007FA00009F9000
009FF100001EFB00
05FFB000000AFF70
0DFF90000007FFE0
3FFF70000005FFF4
6FFF60000005FFF7
7FFF60000004FFF8
7FFF60000004FFF8
6FFF60000004FFF7
3FFF70000005FFF4
0DFF80000007FFE0
05FFB000000AFF60
009FF100001EFA00
0008FA00009F9000
000029A88A930000
ENDCHAR
STARTCHAR P
ENCODING 80
SWIDTH 565 0
DWIDTH 14 0
BBX 14 16 0 0
BITMAP
2CFFFA89C94000
04FFF6003FFA00
03FFF60009FF80
03FFF60006FFE0
03FFF60005FFF1
03FFF60005FFF0
03FFF60007FFC0
03FFF6000BFF40
03FFF6006FD500
03FFFA79851000
03FFF600000000
03FFF600000000
03FFF600000000
03FFF600000000
04FFF700000000
2BFFFE60000000
ENDCHAR
STARTCHAR Q
ENCODING 81
SWIDTH 670 0
DWIDTH 16 0
BBX 16 22 0 -6
BITMAP
000028A88A930000
0007FA00009F9000
009FF100001EFB00
05FFB000000AFF70
0DFF90000007FFE0
3FFF70000005FFF4
6FFF60000005FFF7
7FFF60000004FFF8
7FFF60000004FFF8
6FFF60000004FFF7
3FFF70000005FFF4
0DFF80000007FFE0
06FFB000000AFF60
009FF100001EFA00
0007FA00009F9000
0000A9A88A930000
0003700000000000
000BB62000000000
004FFFFD96200020
00CFFFFFFFFDAB40
0476ADFFFFFFF700
000000158BEE7000
ENDCHAR
STARTCHAR R
ENCODING 82
SWIDTH 628 0
DWIDTH 15 0
BBX 15 16 0 0
BITMAP
2BFFFA79DC710000
04FFF5002DFE3000
03FFF50007FFD000
03FFF50004FFF200
03FFF50004FFF300
03FFF50005FFE100
03FFF5000AFF6000
03FFF5005FE60000
03FFFA8DFF200000
03FFF50AFF900000
03FFF502FFF20000
03FFF500AFFA0000
03FFF5003FFF3000
03FFF5000AFFB000
04FFF60003FFF400
2BFFFC3000BFFE50
ENDCHAR
STARTCHAR S
ENCODING 83
SWIDTH 521 0
DWIDTH 13 0
BBX 12 16 0 0
BITMAP
0005BA77A820
01BF60000BF1
09FE000002F1
0FFE00000070
1FFF40000000
0EFFE6000000
09FFFFD61000
01BFFFFFE600
0007EFFFFFA0
000018EFFFF6
00000019FFFB
11000000AFFC
370000005FFA
3E1000007FF4
4FA00001DF70
038A879C9300
ENDCHAR
STARTCHAR T
ENCODING 84
SWIDTH 627 0
DWIDTH 15 0
BBX 15 16 0 0
BITMAP
6FD879FFFA78DF70
7E1004FFF5001E70
770004FFF5000780
610004FFF5000060
000004FFF5000000
000004FFF5000000
000004FFF5000000
000004FFF5000000
000004FFF5000000
000004FFF5000000
000004FFF5000000
000004FFF5000000
000004FFF5000000
000004FFF5000000
000005FFF6000000
00017DFFFE710000
ENDCHAR
STARTCHAR U
ENCODING 85
SWIDTH 649 0
DWIDTH 16 0
BBX 15 16 0 0
BITMAP
3CFFFE8100019F80
02FFF90000000A00
01FFF80000000900
01FFF80000000900
01FFF80000000900
01FFF80000000900
01FFF80000000900
01FFF80000000900
01FFF80000000900
01FFF80000000900
00FFF80000000900
00DFFA0000000800
009FFD0000005500
003FFF700002B000
0005EFFB769D3000
000028DEED810000
ENDCHAR
STARTCHAR V
ENCODING 86
SWIDTH 632 0
DWIDTH 15 0
BBX 16 16 -1 0
BITMAP
1BFFFFE700002CFA
008FFF8000000380
001FFFB000000730
000BFFF100000900
0005FFF600002700
0001EFFB00007200
00009FFF10009000
00004FFF60027000
00000DFFB0072000
000008FFF10A0000
000003FFF6370000
000000CFFC820000
0000007FFFA00000
0000002FFF700000
0000000BFF200000
00000006FB000000
ENDCHAR
STARTCHAR W
ENCODING 87
SWIDTH 921 0
DWIDTH 22 0
BBX 22 16 0 0
BITMAP
AFFFFD402DFFFE70004DF9
0BFFF30002FFF800000680
06FFF50000BFFB00000820
01FFF900007FFF10000A00
00CFFD0000AFFF50002800
007FFF1001BCFFA0006400
003FFF500577FFE000A000
000DFF900A22FFF400A000
0009FFD01C00CFF8046000
0004FFF267007FFD082000
0000EFF6B2002FFF2B0000
0000AFFBC0000DFF980000
00006FFF700008FFF40000
00001FFF200003FFE00000
00000CFC000000DFA00000
000007F70000008F600000
ENDCHAR
STARTCHAR X
ENCODING 88
SWIDTH 614 0
DWIDTH 15 0
BBX 15 16 0 0
BITMAP
7FFFFC30005EB300
08FFF800001A0000
01DFFE1000820000
005FFF9004600000
000BFFF309000000
0003FFFC73000000
00009FFF90000000
00001EFFE1000000
000007FFF8000000
000009CFFF200000
0000644FFFB00000
0002900AFFF40000
00091002FFFD0000
005600008FFF7000
01B000001EFFE200
4DC200006FFFFD40
ENDCHAR
STARTCHAR Y
ENCODING 89
SWIDTH 590 0
DWIDTH 14 0
BBX 14 16 0 0
BITMAP
6FFFFE400007F8
08FFFA00000280
01EFFE10000810
008FFF70001800
001EFFE0007200
0008FFF6019000
0002FFFC073000
00009FFF590000
00002FFFE40000
000009FFF20000
000007FFF20000
000007FFF20000
000007FFF20000
000007FFF20000
000008FFF30000
00006EFFFB3000
ENDCHAR
STARTCHAR Z
ENCODING 90
SWIDTH 560 0
DWIDTH 13 0
BBX 13 16 0 0
BITMAP
2FF97777AFFF80
2F600000BFFE10
3B000004FFF700
3300000CFFD000
0000006FFF5000
000001DFFC0000
000007FFF40000
00001EFFA00000
00009FFF200000
0002FFF9000000
000AFFE1000000
003FFF80000000
00BFFE10000060
05FFF6000001C0
0DFFD000000AC0
6FFFB77777BFC0
ENDCHAR
STARTCHAR bracketleft
ENCODING 91
SWIDTH 342 0
DWIDTH 8 0
BBX 6 21 2 -4
BITMAP
9FFFE9
9FF200
8FF200
8FF200
8FF100
8FF100
8FF100
8FF100
8FF100
8FF100
8FF100
8FF100
8FF100
8FF100
8FF100
8FF100
8FF100
8FF100
8FF200
9FF200
9FFCA7
ENDCHAR
STARTCHAR backslash
ENCODING 92
SWIDTH 336 0
DWIDTH 8 0
BBX 8 21 0 -4
BITMAP
54000000
18000000
09000000
06300000
01700000
00900000
00720000
00260000
00090000
00081000
00045000
00008000
00008000
00005400
00001800
00000900
00000620
00000270
00000090
00000071
00000036
ENDCHAR
STARTCHAR bracketright
ENCODING 93
SWIDTH 342 0
DWIDTH 8 0
BBX 6 21 0 -4
BITMAP
7ACFF9
002FF9
002FF8
002FF8
002FF8
001FF8
001FF8
001FF8
001FF8
001FF8
001FF8
001FF8
001FF8
001FF8
001FF8
002FF8
002FF8
002FF8
002FF8
002FF9
9EFFF9
ENDCHAR
STARTCHAR asciicircum
ENCODING 94
SWIDTH 541 0
DWIDTH 13 0
BBX 11 7 1 5
BITMAP
00004F400000
0001DFD10000
0009FAF90000
004F707F4000
01D80008D100
099000009A00
290000000920
ENDCHAR
STARTCHAR underscore
ENCODING 95
SWIDTH 532 0
DWIDTH 13 0
BBX 11 2 1 -2
BITMAP
555555555540
555555555540
ENDCHAR
STARTCHAR grave
ENCODING 96
SWIDTH 400 0
DWIDTH 10 0
BBX 6 6 1 13
BITMAP
055000
2FF600
0AFE10
007F70
0003D1
000013
ENDCHAR
STARTCHAR a
ENCODING 97
SWIDTH 518 0
DWIDTH 12 0
BBX 13 12 0 0
BITMAP
0029C8BD810000
03EF800EFC0000
0AFF400BFF6000
09FE100AFF9000
0042000AFFA000
0000257CFFA000
006CD40AFFA000
09FF300AFFA000
3FFE000AFFA000
3FFF100BFFA000
0DFFC7A9FFE720
02AEEA10AEE900
ENDCHAR
STARTCHAR b
ENCODING 98
SWIDTH 581 0
DWIDTH 14 0
BBX 14 17 0 0
BITMAP
0269D200000000
2CFFF200000000
05FFF100000000
04FFF100000000
04FFF100000000
04FFF28DFD9200
04FFF8217FFE20
04FFF2000BFFA0
04FFF20007FFF1
04FFF20005FFF4
04FFF20004FFF5
04FFF20004FFF5
04FFF20005FFF3
04FFF20007FFE0
04FFF2000BFF80
06FFF4005FFB00
2ACDB59BFD7000
ENDCHAR
STARTCHAR c
ENCODING 99
SWIDTH 494 0
DWIDTH 12 0
BBX 12 12 0 0
BITMAP
00029C87B500
006FE300EF80
05FF9000EFF1
0DFF5000BFF1
3FFF30001740
5FFF20000000
6FFF30000000
4FFF50000000
0EFFA0000000
07FFF5000071
009FFFB89C40
0004AEFD9200
ENDCHAR
STARTCHAR d
ENCODING 100
SWIDTH 574 0
DWIDTH 14 0
BBX 14 17 0 0
BITMAP
00000000159C30
00000002AFFF40
000000001FFF30
000000001FFF30
000000001FFF30
0006CEB98FFF30
00BFF6005FFF30
08FFC0003FFF30
0EFF70003FFF30
4FFF40003FFF30
5FFF30003FFF30
6FFF30003FFF30
4FFF40003FFF30
1FFF60003FFF30
0AFFB0003FFF30
02DFF7006FFF40
0018DFC94FFFC2
ENDCHAR
STARTCHAR e
ENCODING 101
SWIDTH 507 0
DWIDTH 12 0
BBX 12 12 0 0
BITMAP
00039A8B9200
007FC001EE40
05FF7000BFD0
0DFF4000AFF4
3FFF3000AFF6
5FFF9888ABB4
6FFF30000000
4FFF50000000
0EFF90000000
07FFF4000062
009FFFB88C50
0005BEFD9300
ENDCHAR
STARTCHAR f
ENCODING 102
SWIDTH 343 0
DWIDTH 8 0
BBX 11 17 0 0
BITMAP
000028DFE800
0004E95FFF30
003EF608FE10
00AFF5001000
02FFF4000000
28FFF9770000
02FFF4000000
02FFF4000000
02FFF4000000
02FFF4000000
02FFF4000000
02FFF4000000
02FFF4000000
03FFF4000000
03FFF4000000
03FFF5000000
2BFFFC400000
ENDCHAR
STARTCHAR g
ENCODING 103
SWIDTH 531 0
DWIDTH 13 0
BBX 13 18 0 -6
BITMAP
0029D8BC602A60
03EF600DFC8840
0BFF1009FF3000
1FFF0007FF7000
2FFE0007FF8000
0FFF0008FF6000
0AFF200AFE1000
02DF702EF50000
00A598A8200000
08F51000000000
0EFFFDA8410000
0CFFFFFFFFA200
02CADFFFFFFD00
1C600136AFFF30
7F20000006FF10
9F40000005FA00
4FC100003DA100
039CAAAA940000
ENDCHAR
STARTCHAR h
ENCODING 104
SWIDTH 580 0
DWIDTH 14 0
BBX 14 17 0 0
BITMAP
026AD100000000
3CFFF200000000
05FFF100000000
04FFF100000000
04FFF100000000
04FFF14BEEA200
04FFF7638FFC00
04FFF2001FFF40
04FFF2000FFF60
04FFF2000FFF60
04FFF2000FFF60
04FFF2000FFF60
04FFF2000FFF60
04FFF2000FFF60
04FFF2000FFF60
05FFF2001FFF70
2CFFFA119FFFC2
ENDCHAR
STARTCHAR i
ENCODING 105
SWIDTH 280 0
DWIDTH 7 0
BBX 7 17 0 0
BITMAP
01CE9000
08FFF300
06FFF200
00794000
00000000
0037C200
3CFFF200
06FFF200
04FFF100
04FFF100
04FFF100
04FFF100
04FFF100
04FFF100
04FFF100
05FFF200
2BFFF910
ENDCHAR
STARTCHAR j
ENCODING 106
SWIDTH 281 0
DWIDTH 7 0
BBX 9 23 -3 -6
BITMAP
00000AEB10
00005FFF60
00003FFF50
0000059600
0000000000
0000027C40
0002CFFF40
00003FFF40
00002FFF40
00002FFF40
00002FFF40
00002FFF40
00002FFF40
00002FFF40
00002FFF40
00002FFF40
00002FFF30
00002FFF30
00002FFF10
01202FFC00
4FF82FF600
8FFF6F9000
2BEEB50000
ENDCHAR
STARTCHAR k
ENCODING 107
SWIDTH 582 0
DWIDTH 14 0
BBX 14 18 0 0
BITMAP
00003100000000
28BEF300000000
09FFF300000000
05FFF200000000
04FFF200000000
04FFF200000000
04FFF20006FB40
04FFF200076000
04FFF200660000
04FFF207600000
04FFF28D100000
04FFFAFF900000
04FFF7FFF50000
04FFF2AFFE1000
04FFF21DFFA000
04FFF204FFF600
05FFF3009FFE20
2CFFFA101DFFD4
ENDCHAR
STARTCHAR l
ENCODING 108
SWIDTH 286 0
DWIDTH 7 0
BBX 7 17 0 0
BITMAP
0269D200
3CFFF200
05FFF200
04FFF200
04FFF200
04FFF200
04FFF200
04FFF200
04FFF200
04FFF200
04FFF200
04FFF200
04FFF200
04FFF200
04FFF200
05FFF300
2CFFFA10
ENDCHAR
STARTCHAR m
ENCODING 109
SWIDTH 871 0
DWIDTH 21 0
BBX 21 12 0 0
BITMAP
0049B03BEEA104AEEB3000
3DFFF675CFFA885AFFD000
06FFF3003FFF2002FFF300
05FFF1002FFF2001FFF500
05FFF1002FFF3001FFF500
05FFF1002FFF3001FFF500
05FFF1002FFF3001FFF500
05FFF1002FFF3001FFF500
05FFF1002FFF3001FFF500
05FFF1002FFF3001FFF500
06FFF1003FFF3001FFF500
2CFFF901AFFFB109FFFC20
ENDCHAR
STARTCHAR n
ENCODING 110
SWIDTH 578 0
DWIDTH 14 0
BBX 14 12 0 0
BITMAP
0049B04BEEA200
3DFFF864AFFC00
06FFF2002FFF20
05FFF1001FFF40
05FFF1001FFF40
05FFF1001FFF40
05FFF1001FFF40
05FFF1001FFF40
05FFF1001FFF40
05FFF1001FFF40
06FFF1002FFF50
2CFFF901AFFFC2
ENDCHAR
STARTCHAR o
ENCODING 111
SWIDTH 545 0
DWIDTH 13 0
BBX 13 12 0 0
BITMAP
0004AA79A40000
008FD000BF9000
06FF70006FF700
0EFF50004FFE10
4FFF40003FFF50
6FFF30002FFF70
6FFF30002FFF70
4FFF40003FFF50
0EFF50004FFE10
06FF70006FF800
009FC000BFA000
0004AA79B50000
ENDCHAR
STARTCHAR p
ENCODING 112
SWIDTH 578 0
DWIDTH 14 0
BBX 14 18 0 -6
BITMAP
0038B18DFEA200
3CFFF6118FFD10
07FFF1000DFF90
05FFF10009FFE0
05FFF10006FFF2
05FFF10006FFF4
05FFF10006FFF3
05FFF10006FFF2
05FFF10008FFD0
05FFF1000CFF70
05FFF1006FFB00
05FFF89BFD7100
05FFF000000000
05FFF000000000
05FFF000000000
05FFF000000000
06FFF100000000
3CFFFA10000000
ENDCHAR
STARTCHAR q
ENCODING 113
SWIDTH 565 0
DWIDTH 14 0
BBX 14 18 0 -6
BITMAP
0007CEEB304B40
01BFF8007DFF40
08FFC0003FFF40
0EFF70003FFF40
4FFF40003FFF40
6FFF30003FFF40
6FFF30003FFF40
5FFF40003FFF40
2FFF60003FFF40
0BFFB0003FFF40
02EFF7018FFF40
0029EFD93FFF40
000000001FFF40
000000001FFF40
000000001FFF40
000000001FFF40
000000002FFF40
00000002BFFFB1
ENDCHAR
STARTCHAR r
ENCODING 114
SWIDTH 441 0
DWIDTH 11 0
BBX 11 12 0 0
BITMAP
0049B03CEA00
3DFFF3EFFF40
06FFF93EFF20
05FFF2027400
05FFF1000000
05FFF1000000
05FFF1000000
05FFF1000000
05FFF1000000
05FFF1000000
05FFF2000000
2CFFFB300000
ENDCHAR
STARTCHAR s
ENCODING 115
SWIDTH 436 0
DWIDTH 10 0
BBX 10 12 0 0
BITMAP
004B979A40
07F60009D0
1FF40001A0
4FFC200020
2FFFFB6100
0BFFFFFE70
019FFFFFF6
00016BFFFC
2300005FFD
3C00000DF9
3F70002ED2
05B978B810
ENDCHAR
STARTCHAR t
ENCODING 116
SWIDTH 361 0
DWIDTH 9 0
BBX 9 16 0 0
BITMAP
0000120000
0001C40000
000AF40000
02BFF30000
49FFF97600
03FFF30000
03FFF30000
03FFF30000
03FFF30000
03FFF30000
03FFF30000
03FFF30000
03FFF30000
01FFF30000
00CFF92620
002AEEB300
ENDCHAR
STARTCHAR u
ENCODING 117
SWIDTH 567 0
DWIDTH 14 0
BBX 14 13 0 0
BITMAP
00001000000100
38BEF0016ADF30
0AFFE0006FFF20
07FFE0003FFF20
07FFD0004FFF20
07FFD0004FFF20
08FFD0004FFF20
08FFD0004FFF20
08FFD0004FFF20
08FFD0004FFF20
06FFE0005FFF20
02EFF7369FFF30
003CEEB42FFFB1
ENDCHAR
STARTCHAR v
ENCODING 118
SWIDTH 530 0
DWIDTH 13 0
BBX 13 12 0 0
BITMAP
7FFFFB2007EC40
07FFF400009000
01EFF900017000
009FFE00062000
003FFF50080000
000CFFB0170000
0006FFF1620000
0001EFF7800000
00009FFD700000
00002FFF200000
00000BFB000000
000005F6000000
ENDCHAR
STARTCHAR w
ENCODING 119
SWIDTH 781 0
DWIDTH 19 0
BBX 19 12 0 0
BITMAP
6EFFFA12DFFF5003CC30
06FFF2003FFE00007100
01EFF6000DFF40007000
00AFFB000CFF80025000
004FFF102AFFD0071000
000EFF6072DFF3070000
0008FFA0908FF8250000
0003FFF4603FFD710000
0000DFFD100DFF900000
00007FFA0008FF500000
00002FF50003FF100000
00000CE00000DA000000
ENDCHAR
STARTCHAR x
ENCODING 120
SWIDTH 568 0
DWIDTH 14 0
BBX 14 12 0 0
BITMAP
3CFFFD3005EA30
01EFFD00029000
006FFF70091000
000CFFE2630000
0003FFFC700000
00009FFF500000
00001FFFD10000
000078FFF80000
000370BFFF3000
0009002FFFC000
00830008FFF700
3AF5001AFFFF91
ENDCHAR
STARTCHAR y
ENCODING 121
SWIDTH 536 0
DWIDTH 13 0
BBX 13 18 0 -6
BITMAP
8FFFFB1006ED40
09FFF30000A100
02FFF700019000
00BFFC00054000
005FFF30090000
000EFF80180000
0008FFE0630000
0002FFF5900000
0000BFFB800000
00005FFF200000
00000EFC000000
000008F7000000
000002F2000000
00000090000000
01200350000000
2EF90700000000
5FFFC400000000
1AED5000000000
ENDCHAR
STARTCHAR z
ENCODING 122
SWIDTH 465 0
DWIDTH 11 0
BBX 11 12 0 0
BITMAP
2FD8778FFF50
3E20007FFC00
470002EFF400
20000AFFA000
00004FFF2000
0000CFF80000
0007FFE10000
001EFF600000
009FFC000040
03FFF40001A0
0CFFA0000990
5FFF9777AF80
ENDCHAR
STARTCHAR braceleft
ENCODING 123
SWIDTH 338 0
DWIDTH 8 0
BBX 7 21 1 -4
BITMAP
003ADC40
03FF6000
09FF0000
0AFF0000
07FF2000
02FF5000
00AF7000
006F8000
007F6000
03EC0000
CD700000
16E90000
008F5000
006F8000
00AF7000
01FF5000
06FF2000
09FF0000
09FF0000
03FF4000
003AC930
ENDCHAR
STARTCHAR bar
ENCODING 124
SWIDTH 267 0
DWIDTH 6 0
BBX 2 24 2 -6
BITMAP
17
17
17
17
17
17
17
17
17
17
17
17
17
17
17
17
17
17
17
17
17
17
17
17
ENDCHAR
STARTCHAR braceright
ENCODING 125
SWIDTH 338 0
DWIDTH 8 0
BBX 7 21 0 -4
BITMAP
39CA3000
004FF300
000FF900
000FF900
002FF600
005FF100
007FA000
008F6000
005F8000
0009E610
00007EC0
000CE300
006F7000
008F6000
007FA000
005FF100
002FF700
000FFA00
000FF900
006FF300
4CDA3000
ENDCHAR
STARTCHAR asciitilde
ENCODING 126
SWIDTH 541 0
DWIDTH 13 0
BBX 11 5 1 6
BITMAP
02BC81000010
0DFFFC100260
4B13EFC10930
62003EFFED00
200002BFD300
ENDCHAR
ENDFONT
